Coordinates
version=1
nRows=9
nColumns=63
inDegrees=yes

Units are S.I. units (second, meters, Newtons, ...)
If the header above contains a line with 'inDegrees', this indicates whether rotational values are in degrees (yes) or radians (no).

endheader
time	pelvis_tilt	pelvis_list	pelvis_rotation	pelvis_tx	pelvis_ty	pelvis_tz	hip_flexion_r	hip_adduction_r	hip_rotation_r	knee_angle_r	knee_angle_r_beta	ankle_angle_r	subtalar_angle_r	mtp_angle_r	hip_flexion_l	hip_adduction_l	hip_rotation_l	knee_angle_l	knee_angle_l_beta	ankle_angle_l	subtalar_angle_l	mtp_angle_l	L5_S1_Flex_Ext	L5_S1_Lat_Bending	L5_S1_axial_rotation	L4_L5_Flex_Ext	L4_L5_Lat_Bending	L4_L5_axial_rotation	L3_L4_Flex_Ext	L3_L4_Lat_Bending	L3_L4_axial_rotation	L2_L3_Flex_Ext	L2_L3_Lat_Bending	L2_L3_axial_rotation	L1_L2_Flex_Ext	L1_L2_Lat_Bending	L1_L2_axial_rotation	L1_T12_Flex_Ext	L1_T12_Lat_Bending	L1_T12_axial_rotation	Abs_r3	Abs_r2	Abs_r1	Abs_t1	Abs_t2	neck_flexion	neck_bending	neck_rotation	arm_flex_r	arm_add_r	arm_rot_r	elbow_flex_r	pro_sup_r	wrist_flex_r	wrist_dev_r	arm_flex_l	arm_add_l	arm_rot_l	elbow_flex_l	pro_sup_l	wrist_flex_l	wrist_dev_l
1.488889	-4.799355	4.083339	93.890721	0.252836	0.853744	0.758838	-2.632538	-4.481891	-5.372034	14.174559	0.247393	33.664934	12.915838	0.000000	-7.933500	3.501543	-2.324618	2.846037	0.049673	25.548939	4.394376	0.000000	-0.110886	-0.133630	1.634574	-0.205927	-0.177728	1.736735	-0.182175	-0.324908	1.736735	-0.126732	-0.324908	1.430252	-0.102969	-0.272498	1.328091	-0.063360	-0.206993	1.225931	-0.792048	-1.511648	9.091010	0.000000	0.000000	4.785559	-5.467694	-4.977586	8.571205	-10.272800	-51.452115	73.237026	82.104304	-29.580830	-14.857099	49.463865	5.202050	37.327000	149.668764	87.934979	-4.787220	2.558193
1.511111	-4.884980	4.167711	94.763615	0.252833	0.853912	0.759459	-2.934746	-4.468318	-6.349069	13.988004	0.244137	33.682849	13.224729	0.000000	-7.832862	3.378877	-2.186725	3.073404	0.053641	25.864723	5.432528	0.000000	-0.123164	-0.161477	1.591734	-0.228727	-0.214765	1.691218	-0.202346	-0.392616	1.691218	-0.140764	-0.392616	1.392767	-0.114370	-0.329284	1.293284	-0.070376	-0.250128	1.193801	-0.879747	-1.826662	8.852748	0.000000	0.000000	4.568907	-4.993395	-4.876698	9.197192	-9.777940	-52.465658	76.106433	82.850492	-28.536285	-13.722136	49.436260	5.566074	37.934081	149.671856	87.933690	-5.580309	2.504839
1.533333	-4.962254	4.246056	95.693704	0.252830	0.854029	0.760123	-3.249870	-4.431134	-7.383976	13.782450	0.240549	33.674159	13.506791	0.000000	-7.728794	3.237186	-1.975451	3.294507	0.057500	26.185328	6.441569	0.000000	-0.135653	-0.190526	1.543505	-0.251922	-0.253399	1.639974	-0.222865	-0.463245	1.639974	-0.155038	-0.463245	1.350567	-0.125968	-0.388520	1.254098	-0.077512	-0.295125	1.157629	-0.968958	-2.155267	8.584513	0.000000	0.000000	4.406250	-4.554087	-4.883162	9.600494	-9.241410	-52.878079	79.344060	83.712222	-27.629028	-12.312169	49.291431	5.940348	38.479324	149.716662	87.944162	-6.122461	2.333987
1.555556	-5.035002	4.316284	96.650233	0.252848	0.854033	0.760741	-3.567867	-4.375334	-8.406492	13.571854	0.236874	33.652414	13.713269	0.000000	-7.625200	3.080179	-1.832386	3.510458	0.061269	26.554071	7.589038	0.000000	-0.147941	-0.219946	1.473243	-0.274741	-0.292529	1.565321	-0.243052	-0.534778	1.565321	-0.169082	-0.534778	1.289088	-0.137378	-0.448515	1.197010	-0.084533	-0.340697	1.104932	-1.056727	-2.488077	8.193736	0.000000	0.000000	4.320247	-4.173670	-4.834128	9.859570	-8.616877	-52.513266	82.972536	84.421386	-26.761264	-10.551070	48.887492	6.250717	38.419245	149.914059	87.981301	-4.981736	2.821142
1.577778	-5.093618	4.380023	97.619411	0.252828	0.853941	0.761325	-3.876365	-4.298748	-9.460683	13.368583	0.233326	33.624323	13.916749	0.000000	-7.533094	2.917287	-1.446739	3.695557	0.064500	26.892530	8.422912	0.000000	-0.158607	-0.247326	1.388645	-0.294550	-0.328944	1.475436	-0.260576	-0.601349	1.475436	-0.181272	-0.601349	1.215065	-0.147283	-0.504348	1.128274	-0.090628	-0.383108	1.041484	-1.132917	-2.797805	7.723228	0.000000	0.000000	4.248617	-3.843218	-4.763247	10.093711	-7.977826	-51.325618	86.891538	84.697588	-25.837902	-8.870706	48.375732	6.395499	38.489868	150.017069	88.052476	-4.366440	2.827871
1.600000	-5.128915	4.441605	98.589481	0.252748	0.853779	0.761878	-4.171380	-4.193061	-10.503363	13.173885	0.229928	33.590499	14.081948	0.000000	-7.452879	2.743137	-0.861376	3.855946	0.067299	27.206489	8.984182	0.000000	-0.168007	-0.269611	1.282879	-0.312005	-0.358583	1.363059	-0.276018	-0.655532	1.363059	-0.192015	-0.655532	1.122519	-0.156011	-0.549791	1.042339	-0.095999	-0.417628	0.962159	-1.200054	-3.049895	7.134990	0.000000	0.000000	4.150302	-3.582089	-4.568965	10.493925	-7.336930	-49.253726	91.000062	84.891780	-24.874360	-7.307038	47.732449	6.355534	38.649683	149.955195	88.151808	-4.497900	2.381220
1.622222	-5.128409	4.500586	99.540306	0.252566	0.853579	0.762411	-4.445074	-4.050610	-11.496730	12.979672	0.226538	33.549042	14.198265	0.000000	-7.383998	2.554784	-0.051856	3.986402	0.069576	27.473118	9.198992	0.000000	-0.175872	-0.283772	1.155605	-0.326612	-0.377417	1.227831	-0.288940	-0.689963	1.227831	-0.201004	-0.689963	1.011155	-0.163315	-0.578668	0.938929	-0.100493	-0.439563	0.866704	-1.256236	-3.210085	6.427130	0.000000	0.000000	4.015990	-3.395888	-4.199704	11.215567	-6.716954	-46.255746	95.225181	84.899907	-23.839819	-5.924497	46.967854	6.168661	38.919195	149.652319	88.258285	-5.747755	1.400491
1.644444	-5.086682	4.560106	100.442373	0.252282	0.853389	0.762946	-4.689217	-3.873384	-12.425573	12.793678	0.223292	33.506578	14.296180	0.000000	-7.322015	2.349829	0.868197	4.103484	0.071619	27.698623	9.162615	0.000000	-0.181966	-0.288427	1.003532	-0.337929	-0.383608	1.066253	-0.298952	-0.701281	1.066253	-0.207969	-0.701281	0.878091	-0.168974	-0.588160	0.815370	-0.103975	-0.446773	0.752649	-1.299766	-3.262743	5.581344	0.000000	0.000000	3.794786	-3.329683	-3.638907	12.388781	-6.135026	-42.270784	99.430363	84.273110	-22.525635	-4.799648	46.048530	5.878662	39.103994	149.131576	88.378579	-7.797183	0.191489
1.666667	-5.023591	4.619265	101.294778	0.251950	0.853257	0.763516	-4.898387	-3.681709	-13.263081	12.624878	0.220346	33.476542	14.352059	0.000000	-7.261812	2.146964	1.864963	4.215775	0.073579	27.864131	8.899050	0.000000	-0.185896	-0.286464	0.831428	-0.345227	-0.380997	0.883392	-0.305408	-0.696509	0.883392	-0.212460	-0.696509	0.727499	-0.172623	-0.584158	0.675535	-0.106221	-0.443733	0.623571	-1.327834	-3.240541	4.624151	0.000000	0.000000	3.462122	-3.320780	-2.872371	14.036088	-5.565825	-37.435586	103.527865	83.413810	-21.207684	-3.679973	45.010728	5.545063	39.094992	148.427722	88.499303	-10.453770	-1.011952
